<svg style="position: absolute; width: 0; height: 0; overflow: hidden;" aria-hidden="true" version="1.1" xmlns="http://www.w3.org/2000/svg" xmlns:xlink="http://www.w3.org/1999/xlink">
    <defs>
        <symbol id="ic-youtube" viewBox="0 0 24 24">
            <path d="M21.5928 7.203c-0.1139-0.4226-0.3365-0.808-0.6456-1.1178-0.3091-0.3099-0.694-0.5333-1.1164-0.6482C18.2648 5.007 11.9998 5 11.9998 5c0 0-6.264-7e-3-7.831 0.404-0.422 0.1201-0.8061 0.3468-1.1154 0.6581-0.3093 0.3114-0.5333 0.697-0.6506 1.1199-0.413 1.566-0.417 4.814-0.417 4.814 0 0-4e-3 3.264 0.406 4.814 0.23 0.857 0.905 1.534 1.763 1.765 1.582 0.43 7.83 0.437 7.83 0.437s6.265 7e-3 7.831-0.403c0.4225-0.1147 0.8078-0.3376 1.1177-0.6468s0.5337-0.694 0.6493-1.1162c0.414-1.565 0.417-4.812 0.417-4.812s0.02-3.265-0.407-4.831zM9.9958 15.005l5e-3-6 5.207 3.005z" />
        </symbol>
        <symbol id="ic-x" viewBox="0 0 24 24">
            <path d="M17.1761 4.2427l2.7601 0-6.0301 6.7774L21 20.2427h-5.5544l-4.3505-5.5934-4.9779 5.5934H3.3554l6.4498-7.2492L3 4.2427l5.6954 0 3.9325 5.1126zM16.2073 18.6181h1.5295L7.8644 5.782l-1.6412 0z" />
        </symbol>
        <symbol id="ic-star-stroke" viewBox="0 0 24 24" fill="none">
            <path stroke-width="2" stroke="currentColor" d="M12 1c0.0375 0 0.0716 0.0106 0.0986 0.0283 0.0231 0.0153 0.0582 0.0468 0.0869 0.1192l2.4346 6.123c0.3072 0.7721 1.0166 1.3293 1.8643 1.4004l6.3193 0.5303c0.0492 41e-4 0.0782 0.0198 0.1016 0.04 0.0283 0.0246 0.0601 0.0678 0.0791 0.1289 0.0391 0.1259 61e-4 0.2358-0.0752 0.3086l-4.8145 4.3135c-0.6221 0.5576-0.8808 1.4149-0.6972 2.2197l1.4716 6.4502c0.032 0.1403-0.021 0.2401-0.0957 0.2969-0.0381 0.0289-0.0735 0.0393-0.0976 0.041-0.0179 12e-4-0.0485-8e-4-0.0977-0.0322l-5.4101-3.4561c-0.7148-0.4567-1.6212-0.4567-2.336 0l-5.4101 3.4561C5.3727 22.9992 5.3421 23.0012 5.3242 23c-0.0241-17e-4-0.0595-0.0121-0.0976-0.041-0.0747-0.0568-0.1277-0.1566-0.0957-0.2969l1.4716-6.4502c0.1836-0.8047-0.075-1.6621-0.6972-2.2197L1.0908 9.6787C1.0095 9.6059 0.9765 9.496 1.0156 9.3701 1.0346 9.309 1.0664 9.2658 1.0947 9.2412 1.1181 9.221 1.147 9.2053 1.1963 9.2012l6.3193-0.5303c0.8477-0.0711 1.5571-0.6281 1.8643-1.4004l2.4346-6.123c0.0287-0.0724 0.0638-0.1039 0.0869-0.1192C11.9284 1.0106 11.9625 1 12 1z" />
        </symbol>
        <symbol id="ic-star-fill" viewBox="0 0 24 24" fill="none">
            <path fill="currentColor" d="M10.8851 0.778c0.4125-1.0373 1.8174-1.0373 2.2299 0l2.4345 6.1229c0.174 0.4373 0.5672 0.7361 1.0185 0.774l6.3193 0.5299c1.0706 0.0898 1.5048 1.4874 0.689 2.2183l-4.8145 4.314c-0.3439 0.3082-0.4942 0.7917-0.3891 1.2524l1.4709 6.4503c0.2492 1.0929-0.8873 1.9567-1.804 1.3711l-5.4101-3.4567c-0.3865-0.2469-0.8725-0.2469-1.2589 0l-5.4102 3.4567c-0.9167 0.5856-2.0532-0.2782-1.804-1.3711l1.4709-6.4503c0.1051-0.4607-0.0451-0.9442-0.389-1.2524l-4.8146-4.314c-0.8158-0.7309-0.3816-2.1285 0.689-2.2183l6.3193-0.53c0.4514-0.0378 0.8446-0.3366 1.0185-0.774z" />
        </symbol>
        <symbol id="ic-phone" viewBox="0 0 32 32" fill="none">
            <path fill="currentColor" d="M23.6095 16.3908c-0.1238-0.124-0.2707-0.2223-0.4325-0.2894-0.1617-0.067-0.3351-0.1016-0.5102-0.1016s-0.3485 0.0346-0.5103 0.1016c-0.1617 0.0671-0.3087 0.1654-0.4324 0.2894l-2.1253 2.1253c-0.9853-0.2933-2.824-0.96-3.9893-2.1253-1.1654-1.1654-1.832-3.004-2.1254-3.9894l2.1254-2.1253c0.1239-0.1237 0.2222-0.2707 0.2893-0.4324 0.0671-0.1618 0.1016-0.3352 0.1016-0.5103 0-0.1751-0.0345-0.3485-0.1016-0.5102-0.0671-0.1618-0.1654-0.3087-0.2893-0.4324l-5.3334-5.3334c-0.1237-0.1239-0.2706-0.2222-0.4324-0.2893C9.682 2.701 9.5086 2.6665 9.3334 2.6665c-0.1751 0-0.3485 0.0345-0.5102 0.1016-0.1618 0.0671-0.3087 0.1654-0.4324 0.2893l-3.616 3.616c-0.5067 0.5067-0.792 1.2027-0.7814 1.9134 0.0307 1.8986 0.5334 8.4933 5.7307 13.6906 5.1974 5.1974 11.792 5.6987 13.692 5.7307h0.0374c0.704 0 1.3693-0.2773 1.8733-0.7813l3.616-3.616c0.1239-0.1237 0.2222-0.2707 0.2893-0.4324 0.0671-0.1618 0.1016-0.3352 0.1016-0.5103s-0.0345-0.3485-0.1016-0.5103c-0.0671-0.1617-0.1654-0.3086-0.2893-0.4324zM23.4401 25.3401c-1.664-0.028-7.3573-0.4747-11.8306-4.9493-4.488-4.488-4.9227-10.2014-4.9494-11.832l2.6733-2.6734 3.4481 3.448-1.724 1.724c-0.1568 0.1566-0.272 0.3498-0.3353 0.5621s-0.0727 0.4371-0.0274 0.6539c0.032 0.1534 0.8147 3.7894 3.028 6.0027s5.8493 2.996 6.0027 3.028c0.2167 0.0466 0.4416 0.038 0.6541-0.0252 0.2125-0.0631 0.4057-0.1787 0.5619-0.3361l1.7253-1.724 3.448 3.448z" />
        </symbol>
        <symbol id="ic-map" viewBox="0 0 32 32" fill="currentColor">
            <path d="M16.0002 18.6665c2.9414 0 5.3334-2.392 5.3334-5.3333 0-2.9414-2.392-5.3334-5.3334-5.3334-2.9413 0-5.3333 2.392-5.3333 5.3334 0 2.9413 2.392 5.3333 5.3333 5.3333zM16.0002 10.6665c1.4707 0 2.6667 1.196 2.6667 2.6667 0 1.4706-1.196 2.6666-2.6667 2.6666-1.4706 0-2.6666-1.196-2.6666-2.6666 0-1.4707 1.196-2.6667 2.6666-2.6667z" />
            <path d="M15.2269 29.0852c0.2257 0.1611 0.4961 0.2478 0.7734 0.2478s0.5476-0.0867 0.7733-0.2478c0.4053-0.2867 9.932-7.1654 9.8933-15.752 0-5.8814-4.7853-10.6667-10.6666-10.6667-5.8814 0-10.6667 4.7853-10.6667 10.66-0.0386 8.5933 9.488 15.472 9.8933 15.7587zM16.0003 5.3332c4.412 0 8 3.588 8 8.0066 0.028 5.9174-5.8507 11.2307-8 12.9734-2.148-1.744-8.028-7.0587-8-12.98 0-4.412 3.588-8 8-8z" />
        </symbol>
        <symbol id="ic-email" viewBox="0 0 32 32" fill="none">
            <path fill="currentColor" d="M26.6665 5.3335H5.3332c-1.4707 0-2.6667 1.196-2.6667 2.6667v16c0 1.4706 1.196 2.6666 2.6667 2.6666h21.3333c1.4707 0 2.6667-1.196 2.6667-2.6666v-16c0-1.4707-1.196-2.6667-2.6667-2.6667zM26.6665 8.0002v0.6813l-10.6667 8.2973-10.6666-8.296 0-0.6826zM5.3332 24.0002l0-11.9414 9.848 7.66c0.2334 0.1834 0.5217 0.2831 0.8186 0.2831s0.5852-0.0997 0.8187-0.2831l9.848-7.66 27e-4 11.9414z" />
        </symbol>
        <symbol id="ic-linkedin" viewBox="0 0 24 24">
            <path d="M19.3125 3H4.6875C3.7594 3 3 3.7594 3 4.6875v14.625C3 20.2406 3.7594 21 4.6875 21h14.625C20.2406 21 21 20.2406 21 19.3125V4.6875C21 3.7594 20.2406 3 19.3125 3zM9.75 17.625H7.5V9.75h2.25zM8.625 8.625C8.0029 8.625 7.5 8.1221 7.5 7.5c0-0.6221 0.5029-1.125 1.125-1.125S9.75 6.8779 9.75 7.5c0 0.6221-0.5029 1.125-1.125 1.125zM17.625 17.625h-2.25v-4.5c0-0.6221-0.5029-1.125-1.125-1.125s-1.125 0.5029-1.125 1.125v4.5h-2.25V9.75h2.25v1.3956c0.4641-0.6362 1.1739-1.3956 1.9688-1.3956 1.3994 0 2.5312 1.2589 2.5312 2.8125z" />
        </symbol>
        <symbol id="ic-instagram" viewBox="0 0 24 24">
            <path d="M11.9988 4.6209c2.4044 0 2.689 0.0107 3.6344 0.0529 0.8791 0.0388 1.3532 0.1861 1.6698 0.3093 0.4185 0.162 0.7205 0.3588 1.0332 0.6715 0.3166 0.3167 0.5096 0.6153 0.6749 1.0338 0.1232 0.3166 0.2705 0.7941 0.3093 1.6698 0.0422 0.9494 0.0529 1.234 0.0529 3.635 0 2.401-0.0107 2.6889-0.0529 3.6349-0.0388 0.8791-0.1861 1.3532-0.3093 1.6699-0.162 0.4184-0.3583 0.7204-0.6715 1.0331-0.3167 0.3167-0.6153 0.5096-1.0332 0.675-0.3166 0.1231-0.7947 0.2705-1.6698 0.3093-0.9494 0.0422-1.234 0.0529-3.635 0.0529-2.401 0-2.6889-0.0107-3.6349-0.0529-0.8791-0.0388-1.3532-0.1862-1.6699-0.3093-0.4184-0.162-0.7205-0.3583-1.0337-0.6716-0.3167-0.3166-0.5096-0.6153-0.6749-1.0332-0.1232-0.3166-0.2706-0.7947-0.3094-1.6698-0.0421-0.9494-0.0528-1.234-0.0528-3.635 0-2.4009 0.0107-2.6889 0.0528-3.6349 0.0388-0.8791 0.1862-1.3532 0.3094-1.6698C5.1502 6.2733 5.347 5.9713 5.6597 5.658 5.9764 5.3414 6.275 5.1485 6.6934 4.9831 7.0101 4.8599 7.4876 4.7126 8.3633 4.6738c0.9454-0.0422 1.2306-0.0529 3.6349-0.0529zM11.9988 3.0006c-2.4432 0-2.7486 0.0107-3.7086 0.0528-0.9561 0.0422-1.6136 0.1969-2.1828 0.4185-0.5939 0.2317-1.0967 0.5377-1.5956 1.0405C4.009 5.0118 3.703 5.514 3.4713 6.1046 3.2497 6.6777 3.0951 7.3312 3.0529 8.2874 3.0107 9.2508 3 9.5562 3 11.9994c0 2.4431 0.0107 2.7485 0.0529 3.7086 0.0421 0.9561 0.1968 1.6136 0.4184 2.1828 0.2323 0.5939 0.5377 1.0967 1.0405 1.5956 0.4989 0.4988 1.0017 0.8087 1.5922 1.0371 0.5731 0.2216 1.2267 0.3762 2.1828 0.4184 0.9595 0.0422 1.2655 0.0529 3.7086 0.0529 2.4432 0 2.7492-0.0107 3.7087-0.0529 0.9561-0.0422 1.6136-0.1968 2.1827-0.4184 0.5906-0.2284 1.0934-0.5377 1.5923-1.0371 0.4988-0.4995 0.8087-1.0017 1.0371-1.5923 0.2216-0.5731 0.3762-1.2266 0.4184-2.1827 0.0422-0.9595 0.0529-1.2655 0.0529-3.7087 0-2.4431-0.0107-2.7485-0.0529-3.7086-0.0422-0.9561-0.1968-1.6136-0.4184-2.1828-0.2216-0.5978-0.5276-1.1001-1.0298-1.5995-0.4989-0.4989-1.0017-0.8088-1.5923-1.0371-0.5731-0.2216-1.2266-0.3763-2.1827-0.4185C14.7485 3.0107 14.4425 3 11.9994 3z" />
            <path d="M11.9985 7.377C9.4468 7.377 7.376 9.4472 7.376 11.9995c0 2.5523 2.0703 4.6226 4.6225 4.6226 2.5523 0 4.6226-2.0703 4.6226-4.6226 0-2.5517-2.0703-4.6226-4.6226-4.6226zM11.9985 14.9978c-1.6557 0-2.9982-1.3425-2.9982-2.9983 0-1.6558 1.3425-2.9983 2.9982-2.9983 1.6558 0 2.9983 1.3425 2.9983 2.9983s-1.3425 2.9983-2.9983 2.9983z" />
            <path d="M17.8822 7.194c0 0.5962-0.4831 1.0793-1.0793 1.0793-0.5961 0-1.0793-0.4831-1.0793-1.0793 0-0.5961 0.4832-1.0793 1.0793-1.0793 0.5962 0 1.0793 0.4832 1.0793 1.0793z" />
        </symbol>
        <symbol id="ic-facebook" viewBox="0 0 24 24">
            <path d="M22 12.3038c0-5.5566-4.4771-10.0611-10-10.0611-5.5228 0-10 4.5045-10 10.0611 0 5.0217 3.6568 9.1841 8.4375 9.9389v-7.0306H7.8984l0-2.9083h2.5391v-2.2166c0-2.5216 1.493-3.9144 3.7771-3.9144 1.0942 0 2.2385 0.1965 2.2385 0.1965v2.476l-1.2609 0c-1.2422 0-1.6297 0.7756-1.6297 1.5713v1.8872h2.7734l-0.4433 2.9083h-2.3301v7.0306C18.3432 21.4879 22 17.3257 22 12.3038z" />
        </symbol>
        <symbol id="ic-leaf" viewBox="0 0 24 24" fill="none">
            <path fill="currentColor" d="M21.8798 2.1499l-1.2 0.4c-2.0566 0.7146-4.2528 0.9338-6.41 0.64-2.2669-0.3518-4.5871-0.0392-6.68 0.9-1.1096 0.4725-2.0833 1.2149-2.8326 2.1598C4.008 7.1946 3.5069 8.3119 3.2998 9.4999c-0.2108 1.1425-0.1892 2.3156 0.0633 3.4496 0.2526 1.1339 0.731 2.2054 1.4067 3.1504-0.0601 0.21-0.12 0.42-0.17 0.63-0.4062 1.727-0.6076 3.4959-0.6 5.27h1.9999c0.0941-1.4522 0.2912-2.8958 0.5901-4.32 1.3874 0.7492 2.9433 1.1313 4.52 1.11 1.4704-1e-3 2.9258-0.2968 4.28-0.87 7.61-3.25 6.61-14.06 6.61-14.51zM14.6098 16.0799c-2.61 1.11-5.73 0.92-7.48-0.45 0.2957-0.989 0.7016-1.9416 1.21-2.84 0.3951-0.6466 0.8614-1.247 1.3899-1.79 0.5402-0.5488 1.1485-1.026 1.8101-1.42 1.367-0.8175 2.8832-1.3546 4.46-1.58v-1c-1.8143-0.0628-3.6174 0.3074-5.26 1.08-1.6796 0.8195-3.104 2.0815-4.12 3.65-0.3769 0.5991-0.711 1.224-1 1.87-0.4635-1.1856-0.5949-2.4752-0.38-3.73 0.1407-0.8785 0.5029-1.7066 1.0522-2.4064 0.5494-0.6998 1.2678-1.2483 2.0878-1.5936 1.1956-0.5588 2.5002-0.8457 3.82-0.84 0.62 0 1.23 0.06 1.87 0.11 2.0043 0.2586 4.0393 0.1399 6-0.35-0.07 2.76-0.57 9.21-5.46 11.29z" />
        </symbol>
        <symbol id="ic-donate" viewBox="0 0 24 24" fill="none">
            <path fill="currentColor" d="M4 21h9.62c0.5771 3e-4 1.1474-0.1244 1.6716-0.3656 0.5243-0.2411 0.9901-0.593 1.3654-1.0314l5.102-5.952c0.1068-0.1244 0.1814-0.2732 0.2172-0.4332 0.0358-0.1601 0.0317-0.3265-0.012-0.4845-0.0436-0.1581-0.1255-0.303-0.2384-0.422s-0.2532-0.2084-0.4088-0.2603l-1.968-0.656c-0.4756-0.1546-0.9821-0.1896-1.4745-0.1018-0.4924 0.0877-0.9555 0.2954-1.3485 0.6048l-3.185 2.547-0.617-1.235c-0.3305-0.6657-0.8409-1.2256-1.4733-1.6162C10.6184 11.2032 9.8893 10.9975 9.146 11H4c-1.103 0-2 0.897-2 2v6c0 1.103 0.897 2 2 2zM4 13h5.146c0.763 0 1.448 0.423 1.789 1.105L11.382 15H7v2h6.014c0.1539-2e-3 0.3051-0.0397 0.442-0.11l3e-3-1e-3 4e-3-2e-3h3e-3l2e-3-1e-3h4e-3l1e-3-1e-3c9e-3 3e-3 3e-3-1e-3 3e-3-1e-3 0.01 0 2e-3-1e-3 2e-3-1e-3h1e-3l2e-3-1e-3 3e-3-1e-3 4e-3-2e-3 3e-3-1e-3 2e-3-1e-3c3e-3 0 2e-3-1e-3 2e-3-1e-3l3e-3-2e-3 4e-3-2e-3 3e-3-1e-3 2e-3-1e-3h1e-3l2e-3-1e-3 3e-3-1e-3 2e-3-1e-3c9e-3-1e-3 3e-3-1e-3 3e-3-1e-3l2e-3-1e-3c0.0385-0.0232 0.0753-0.0493 0.11-0.078l4.146-3.317c0.262-0.208 0.623-0.273 0.94-0.167l0.557 0.186-4.133 4.823c-0.1901 0.2159-0.424 0.3889-0.686 0.5075-0.2621 0.1186-0.5463 0.1801-0.834 0.1805H4zM15.983 2C15.82 2.002 14.977 2.039 14 2.705c-0.951-0.648-1.774-0.7-1.968-0.704L12.002 2l-4e-3 0c-0.801 0-1.555 0.313-2.119 0.878C9.313 3.445 9 4.198 9 5 9 5.802 9.313 6.555 9.861 7.104l3.414 3.586c0.0939 0.0975 0.2066 0.1751 0.3312 0.228s0.2586 0.0802 0.394 0.0801 0.2694-0.0275 0.3939-0.0806c0.1246-0.0532 0.2371-0.1309 0.3309-0.2285l3.396-3.568C18.688 6.555 19 5.802 19 5c0-0.802-0.313-1.555-0.878-2.121-0.2777-0.2795-0.608-0.501-0.9719-0.6519C16.7862 2.0762 16.3959 1.999 16.002 2zM17 5c0 0.267-0.104 0.518-0.311 0.725L14 8.55 11.293 5.707C11.104 5.518 11 5.267 11 5c0-0.267 0.104-0.518 0.294-0.708 0.1808-0.1839 0.4271-0.2889 0.685-0.292 0.025 1e-3 0.502 0.032 1.067 0.485 0.081 0.065 0.163 0.139 0.247 0.222L14 5.414l0.707-0.707c0.084-0.083 0.166-0.157 0.247-0.222 0.529-0.425 0.976-0.478 1.052-0.484 0.1303 0 0.2594 0.0258 0.3797 0.0759 0.1203 0.0501 0.2295 0.1236 0.3213 0.2161C16.896 4.482 17 4.733 17 5z" />
        </symbol>
        <symbol id="ic-book" viewBox="0 0 24 24" fill="currentColor">
            <path d="M6 22h15v-2H6.012C5.55 19.988 5 19.805 5 19s0.55-0.988 1.012-1H21V4c0-1.103-0.897-2-2-2H6C4.794 2 3 2.799 3 5v14c0 2.201 1.794 3 3 3zM5 5c0-0.805 0.55-0.988 1-1h13v12H5z" />
            <path d="M8 6h9v2H8z" />
        </symbol>
        <symbol id="ic-logo" viewBox="0 0 84 36" fill="currentColor" clip-rule="evenodd">
            <path d="M18.4957 11.2909l0.0136 0.0113 0.1373 0.1142 0.1102 0.092 0.4879 0.4058 9e-4 11.3377c-2.5986 2.1457-5.2134 4.2717-7.8439 6.3776-0.1669-0.0166-4.4996-3.58-6.7005-5.3902l-0.0615-0.0506c-0.5641-0.4639-0.9787-0.8048-1.132-0.9286L3.5 11.9204 11.3359 5.5c0.2554 0.0362 5.1472 4.1131 7.1598 5.7909zM15.112 13.6072l-88e-4-0.0141-14e-4-26e-4-0.0122-0.0197c-1.2878-2.0837-3.5437-5.7335-3.7367-5.872l-4.5467 7.2446 0.0102 5.0291 0.9142 1.5002c0.4003 0.057 0.804 0.1223 1.2091 0.1877 0.8217 0.1328 1.6489 0.2664 2.4647 0.3342l0.4933-0.0736 0.5949-0.0897c0.8404-0.1271 1.6809-0.2541 2.5228-0.3667l0.9172-1.4245-4e-4-5.111c-0.1094-0.1715-0.4151-0.6663-0.8202-1.3219zM16.2719 15.5375c0.32 0.3999 0.5949 0.8904 0.8612 1.3656 0.0769 0.1369 0.1529 0.2724 0.2291 0.4042 0.0378 0.0656 0.0757 0.1302 0.1138 0.1935L17.3234 17.75l-0.1586 0.2577c-0.1383 0.2238-0.2773 0.447-0.4175 0.6697l-0.484 0.7852c-5e-4-0.3775-36e-4-0.7558-68e-4-1.1343-77e-4-0.9308-0.0152-1.8633 0.0154-2.7908zM12.6441 6.9161c-0.376-0.3304-0.8373-0.7353-1.114-0.8534l84e-4 0.3722c68e-4 0.2923 0.0136 0.5846 0.0161 0.8769 1.4443 2.3308 2.9006 4.6542 4.3689 6.9701-2e-4-0.0712-34e-4-0.1827-72e-4-0.3193v-7e-3-72e-4-38e-4-46e-4c-0.0175-0.6526-0.0492-1.8392 0.1172-2.0141 43e-4-48e-4 91e-4-92e-4 0.0143-0.0134l0.0125-0.0101 0.0125-0.0102 0.1467 0.0642c0.1132 0.5156 0.086 1.32 0.0617 2.0367l-4e-4 0.0104-14e-4 0.0438c-98e-4 0.2986-0.0188 0.5801-0.0161 0.8166 0.193 0.323 0.391 0.6441 0.5892 0.9654 0.3443 0.558 0.6888 1.1166 1.0082 1.6867l-1.5951 2.5613 38e-4 1.6415v1.264l2.6455 15e-4-57e-4-10.9091c-1.939-1.6313-3.897-3.2393-5.8743-4.8237l-0.061-0.0499-0.056-0.0472c-0.0821-0.0699-0.1749-0.1516-0.2738-0.2383zM11.1493 6.0834l0.0378 0.0325c0.0765 0.227 0.0552 0.5773 0.0368 0.8807-68e-4 0.1114-0.0132 0.2164-0.0143 0.3067l-4.413 7.0426c12e-4-0.1089 43e-4-0.2239 87e-4-0.3429l4e-3-0.1091 89e-4-0.2134c0.0224-0.5322 0.0465-1.1038-0.0127-1.5514-0.0166-0.1253-0.054-0.1706-0.1511-0.244l-0.102 0.0193c-0.1543 0.2399-0.11 1.725-0.086 2.5341l7e-3 0.2502c21e-4 0.0734 34e-4 0.1344 39e-4 0.1802-0.5296 0.8656-1.0519 1.7355-1.5675 2.6095l1.5707 2.5756-66e-4 1.4729-52e-4 1.4578-2.6376-38e-4 0.01-10.8999c1.5713-1.3554 3.1916-2.6633 4.8106-3.9699 0.8353-0.6741 1.6702-1.3479 2.4976-2.0277zM9.4562 22.0666c-0.4963-0.0885-0.9921-0.1769-1.4854-0.2168l0.3815 0.6125c1.017 1.6321 2.0365 3.2688 3.009 4.9256 0.4931-0.7954 0.9814-1.5936 1.4641-2.3947 0.2184-0.3521 0.435-0.7056 0.6516-1.0592 0.4289-0.7003 0.8582-1.4008 1.3016-2.0909-0.2762 0.0391-0.6049 0.0958-0.9546 0.1561-0.868 0.1498-1.8666 0.3221-2.5194 0.3044-0.613-0.0168-1.2309-0.1269-1.8484-0.237zM6.7991 21.6728l0.7471 0.1079c0.5008 0.8307 1.0102 1.6562 1.5196 2.4818l21e-4 37e-4 0.0136 0.0222c0.714 1.1577 1.4279 2.3155 2.1186 3.4875-5e-4 0.1826 0 0.3652 16e-4 0.5478 2e-3 0.2618 59e-4 0.5237 0.0117 0.7853l-1.4892-1.2189-5.6213-4.5854c0.6307 88e-4 1.2621 69e-4 1.8933 5e-3 0.2665-8e-4 0.533-16e-4 0.7993-16e-4 0.0147-0.5445 48e-4-1.0904 36e-4-1.6353zM15.7471 21.6974l-0.0279 27e-4-0.5171 0.0796-3.6573 5.9521-0.0143 1.3729c0.2357-0.1921 0.4716-0.3836 0.7081-0.5745 0.296-0.239 0.5929-0.4771 0.8902-0.7145 1.8508-1.4851 3.6865-2.9885 5.5073-4.5105l-2.7001 29e-4c16e-4-0.1206 66e-4-0.2463 0.0118-0.3745l7e-4-0.0111c0.0165-0.3982 0.034-0.8193-0.0456-1.1821-0.071-0.0533-0.0801-0.0522-0.1347-0.0455zM6.4796 19.3l-12e-4 0.1223-0.3908-0.6384c-0.166-0.3052-0.3515-0.6045-0.5364-0.9024-0.0823-0.1329-0.1644-0.2655-0.2447-0.3982 0.2282-0.4283 0.4788-0.8471 0.7292-1.2653l0.1914-0.3202c0.0631-0.1063 0.1259-0.2127 0.1878-0.3193 0.1309 0.1991 0.0919 2.2547 0.0719 3.3052-32e-4 0.1686-59e-4 0.3113-73e-4 0.4163zM15.5774 21.3364l0.0678-0.121c0.1193-0.2139 0.2393-0.4287 0.394-0.6192 0.0138 0.1967-7e-4 0.4645-0.0361 0.6256-0.1939 0.0712-0.2726 0.0964-0.4257 0.1146zM6.8186 20.6634c0.184 0.2265 0.3185 0.4875 0.4616 0.7403-0.0526-63e-4-0.0767-83e-4-0.1003-0.0128-0.0449-86e-4-0.088-0.0266-0.3254-0.1019-0.0359-0.2283-0.0499-0.4288-0.0359-0.6256z" fill-rule="evenodd" />
            <path stroke-width="0.2" stroke="currentColor" fill="none" d="M15.1032 13.5931l88e-4 0.0141c0.4051 0.6556 0.7108 1.1504 0.8202 1.3219l4e-4 5.111-0.9172 1.4245c-0.8419 0.1126-1.6824 0.2396-2.5228 0.3667l-0.5949 0.0897-0.4933 0.0736c-0.8158-0.0678-1.643-0.2014-2.4647-0.3342-0.4051-0.0654-0.8088-0.1307-1.2091-0.1877l-0.9142-1.5002-0.0103-5.0291 4.5468-7.2446M15.1032 13.5931l-14e-4-26e-4-0.0122-0.0197c-1.2878-2.0837-3.5437-5.7335-3.7367-5.872M15.1032 13.5931c-0.3216-0.5206-0.7052-1.1412-1.1023-1.7813-1.1898-1.917-2.5028-4.0088-2.648-4.113M15.9235 14.2819c-1.4683-2.3159-2.9246-4.6393-4.3689-6.9701-25e-4-0.2923-93e-4-0.5846-0.0161-0.8769l-84e-4-0.3722c0.2767 0.1181 0.738 0.5231 1.114 0.8534 0.0989 0.0868 0.1917 0.1684 0.2738 0.2383l0.056 0.0472 0.061 0.0499c1.9773 1.5844 3.9353 3.1924 5.8743 4.8237l57e-4 10.9091-2.6455-15e-4v-1.264l-38e-4-1.6415 1.5951-2.5613c-0.3194-0.5701-0.6639-1.1287-1.0082-1.6867-0.1982-0.3213-0.3962-0.6424-0.5892-0.9654M15.9235 14.2819c-2e-4-0.0712-34e-4-0.1827-72e-4-0.3193M15.9235 14.2819c0-11e-4 0-22e-4 0-34e-4 0-0.0713-34e-4-0.1814-72e-4-0.3159M15.9163 13.9626v-7e-3-72e-4-38e-4-46e-4c-0.0175-0.6526-0.0492-1.8392 0.1172-2.0141 43e-4-48e-4 91e-4-92e-4 0.0143-0.0134l0.0125-0.0101 0.0125-0.0102 0.1467 0.0642c0.1132 0.5156 0.086 1.32 0.0617 2.0367M16.2812 13.9931l-4e-4 0.0104-14e-4 0.0438c-98e-4 0.2986-0.0188 0.5801-0.0161 0.8166M16.2812 13.9931c-16e-4 0.0467-29e-4 0.0938-45e-4 0.1397-86e-4 0.2667-0.0159 0.5173-0.0134 0.7311M7.1799 21.3909c0.0236 45e-4 0.0477 65e-4 0.1003 0.0128-0.1431-0.2528-0.2776-0.5138-0.4616-0.7403-0.014 0.1968 0 0.3973 0.0359 0.6256M7.1799 21.3909c-0.0449-86e-4-0.088-0.0266-0.3254-0.1019M7.1799 21.3909c-0.0444-85e-4-0.0862-0.0259-0.3166-0.0991-29e-4-9e-4-59e-4-18e-4-88e-4-28e-4M18.4957 11.2909l0.0136 0.0113 0.1373 0.1142 0.1102 0.092 0.4879 0.4058 9e-4 11.3377c-2.5986 2.1457-5.2134 4.2717-7.8439 6.3776-0.1669-0.0166-4.4996-3.58-6.7005-5.3902l-0.0615-0.0506c-0.5641-0.4639-0.9787-0.8048-1.132-0.9286L3.5 11.9204 11.3359 5.5c0.2554 0.0362 5.1472 4.1131 7.1598 5.7909zM16.2719 15.5375c0.32 0.3999 0.5949 0.8904 0.8612 1.3656 0.0769 0.1369 0.1529 0.2724 0.2291 0.4042 0.0378 0.0656 0.0757 0.1302 0.1138 0.1935L17.3234 17.75l-0.1586 0.2577c-0.1383 0.2237-0.2773 0.447-0.4175 0.6697l-0.484 0.7852c-5e-4-0.3775-36e-4-0.7558-68e-4-1.1343-77e-4-0.9308-0.0152-1.8633 0.0154-2.7908zM11.1493 6.0834l0.0378 0.0325c0.0765 0.227 0.0552 0.5773 0.0368 0.8807-68e-4 0.1114-0.0132 0.2164-0.0143 0.3067l-4.413 7.0426c12e-4-0.1089 43e-4-0.2239 87e-4-0.3429l4e-3-0.1091 89e-4-0.2134c0.0224-0.5322 0.0465-1.1038-0.0127-1.5514-0.0166-0.1253-0.054-0.1706-0.1511-0.244l-0.102 0.0193c-0.1543 0.2399-0.11 1.725-0.086 2.5341l7e-3 0.2502c21e-4 0.0734 34e-4 0.1344 39e-4 0.1802-0.5296 0.8656-1.0519 1.7355-1.5675 2.6095l1.5707 2.5756-66e-4 1.4729-52e-4 1.4578-2.6376-38e-4 0.01-10.8999c1.5713-1.3554 3.1916-2.6633 4.8106-3.9699 0.8353-0.6741 1.6702-1.3479 2.4976-2.0277zM9.4562 22.0666c-0.4963-0.0885-0.9921-0.1769-1.4854-0.2168l0.3815 0.6125c1.017 1.6321 2.0365 3.2688 3.009 4.9256 0.4931-0.7954 0.9814-1.5936 1.4641-2.3947 0.2184-0.3521 0.435-0.7056 0.6516-1.0591 0.4289-0.7004 0.8582-1.4009 1.3016-2.091-0.2762 0.0391-0.6049 0.0958-0.9546 0.1561-0.868 0.1498-1.8666 0.3221-2.5194 0.3044-0.613-0.0168-1.2309-0.1269-1.8484-0.237zM6.7991 21.6728l0.7471 0.1079c0.5008 0.8307 1.0102 1.6562 1.5196 2.4818l21e-4 37e-4 0.0136 0.0222c0.714 1.1577 1.4279 2.3155 2.1186 3.4875-5e-4 0.1826 0 0.3652 16e-4 0.5478 2e-3 0.2618 59e-4 0.5237 0.0117 0.7853l-1.4892-1.2189-5.6213-4.5854c0.6307 88e-4 1.2621 69e-4 1.8933 5e-3 0.2665-8e-4 0.533-16e-4 0.7993-16e-4 0.0147-0.5445 48e-4-1.0904 36e-4-1.6353zM15.7471 21.6974l-0.0279 27e-4-0.5171 0.0796-3.6573 5.9521-0.0143 1.3729c0.2357-0.1921 0.4716-0.3836 0.7081-0.5745 0.296-0.239 0.5929-0.4771 0.8902-0.7145 1.8508-1.4851 3.6865-2.9885 5.5073-4.5105l-2.7001 29e-4c16e-4-0.1206 66e-4-0.2463 0.0118-0.3745l7e-4-0.0111c0.0165-0.3982 0.034-0.8193-0.0456-1.1821-0.071-0.0533-0.0801-0.0522-0.1347-0.0455zM6.4796 19.3l-12e-4 0.1223-0.3908-0.6384c-0.166-0.3052-0.3515-0.6045-0.5364-0.9024-0.0823-0.1329-0.1644-0.2655-0.2447-0.3982 0.2282-0.4283 0.4788-0.8471 0.7292-1.2653l0.1914-0.3202c0.0631-0.1063 0.1259-0.2127 0.1878-0.3193 0.1309 0.1991 0.0919 2.2547 0.0719 3.3052-32e-4 0.1686-59e-4 0.3113-73e-4 0.4163zM15.5774 21.3364l0.0678-0.121c0.1193-0.2139 0.2393-0.4287 0.394-0.6192 0.0138 0.1967-7e-4 0.4645-0.0361 0.6256-0.1939 0.0712-0.2726 0.0964-0.4257 0.1146z" />
            <path stroke-width="0.2" stroke="currentColor" d="M15.112 13.6072c-0.1606-0.2597-0.3366-0.5445-0.5222-0.8446 0.1822 0.2946 0.3552 0.5746 0.5133 0.8304z" fill-rule="evenodd" />
            <path d="M15.9233 14.2819c-3e-4-0.0737-34e-4-0.1905-73e-4-0.3336v72e-4c39e-4 0.1399 7e-3 0.2539 73e-4 0.3264z" fill-rule="evenodd" />
            <path stroke-width="0.2" stroke="currentColor" fill="none" d="M15.916 13.9555v-72e-4c39e-4 0.1431 7e-3 0.2599 73e-4 0.3336-3e-4-0.0725-34e-4-0.1865-73e-4-0.3264zM15.916 13.9555v7e-3c39e-4 0.1345 73e-4 0.2446 73e-4 0.3159" />
            <path stroke-width="0.2" stroke="currentColor" d="M6.8081 13.9245c-57e-4 0.147-0.0102 0.2887-0.0116 0.4213 12e-4-0.1088 43e-4-0.2238 87e-4-0.3428 9e-4-0.0258 2e-3-0.0524 29e-4-0.0785zM6.4772 14.8688c-7e-4-0.0909-52e-4-0.2424-0.0109-0.4304l7e-3 0.2502c21e-4 0.0734 34e-4 0.1345 39e-4 0.1802z" fill-rule="evenodd" />
            <path d="M15.9375 23.2313c25e-4-0.1004 68e-4-0.2038 0.0111-0.3088l-7e-4 0.0111c-4e-3 0.1015-81e-4 0.2006-0.0104 0.2977z" fill-rule="evenodd" />
            <path stroke-width="0.2" stroke="currentColor" fill="none" d="M15.9479 22.9336l7e-4-0.0111c-43e-4 0.105-86e-4 0.2084-0.0111 0.3088 23e-4-0.0971 64e-4-0.1962 0.0104-0.2977zM15.9479 22.9336c-27e-4 0.0654-54e-4 0.1298-75e-4 0.1936-11e-4 0.0324-2e-3 0.0649-27e-4 0.0967" />
            <path stroke-width="0.2" stroke="currentColor" d="M6.4148 15.5784c-0.0746 0.1286-0.1504 0.2567-0.2268 0.3848l0.039-0.0655c0.063-0.1063 0.1259-0.2126 0.1878-0.3193zM6.4783 19.4223c0-0.1285 61e-4-0.4177 0.0129-0.7829-16e-4 0.086-31e-4 0.1678-45e-4 0.2443-48e-4 0.2482-84e-4 0.4403-84e-4 0.5386z" fill-rule="evenodd" />
            <path d="M55.7198 27.9833v-0.7504h0.7616c0.2614 0 0.4854-0.0336 0.672-0.1008 0.1867-0.0598 0.3435-0.168 0.4704-0.3248 0.127-0.1568 0.2352-0.3734 0.3248-0.6496l1.9936-6.4064h0.8176l-2.0832 6.6416c-0.1194 0.3808-0.2837 0.6869-0.4928 0.9184-0.209 0.2389-0.4592 0.4106-0.7504 0.5152-0.2912 0.1045-0.6234 0.1568-0.9968 0.1568zM57.6462 25.5305v-0.7056h1.064v0.7056zM57.5454 25.5305 55.395 19.7513h0.8624l2.072 5.7792z" />
            <path d="M51.644 25.676v-5.9248h0.672v2.4752h-0.0672c0-0.8661 0.1904-1.5045 0.5712-1.9152 0.3808-0.4181 0.9782-0.6272 1.792-0.6272h0.1904v0.7616h-0.3472c-0.6421 0-1.1312 0.168-1.4672 0.504-0.336 0.3286-0.504 0.8139-0.504 1.456v3.2704z" />
            <path d="M48.7389 25.6761v-8.176h0.84v8.176zM47.8765 18.1833v-0.6832h1.7024v0.6832z" />
            <path d="M44.4451 25.8664c-0.5077 0-0.9483-0.0858-1.3216-0.2576-0.3733-0.1792-0.6795-0.4144-0.9184-0.7056-0.2389-0.2986-0.4181-0.6309-0.5376-0.9968-0.112-0.3658-0.168-0.7429-0.168-1.1312v-0.1568c0-0.3808 0.056-0.7541 0.168-1.12 0.1195-0.3658 0.2987-0.6944 0.5376-0.9856s0.5376-0.5226 0.896-0.6944c0.3659-0.1792 0.7915-0.2688 1.2768-0.2688 0.6197 0 1.1349 0.1382 1.5456 0.4144 0.4181 0.2763 0.7317 0.631 0.9408 1.064 0.2091 0.4256 0.3136 0.8848 0.3136 1.3776v0.4368h-5.2976v-0.6496h4.7152l-0.2128 0.3248c0-0.4405-0.0784-0.825-0.2352-1.1536-0.1493-0.336-0.3733-0.5973-0.672-0.784-0.2912-0.1941-0.6571-0.2912-1.0976-0.2912-0.4629 0-0.8475 0.1083-1.1536 0.3248-0.3061 0.2166-0.5376 0.504-0.6944 0.8624-0.1493 0.3584-0.224 0.7654-0.224 1.2208 0 0.448 0.0747 0.8587 0.224 1.232 0.1568 0.3659 0.392 0.6571 0.7056 0.8736 0.3211 0.2166 0.7243 0.3248 1.2096 0.3248 0.5152 0 0.9333-0.1157 1.2544-0.3472 0.3211-0.2389 0.5189-0.5189 0.5936-0.84h0.784c-0.0747 0.3958-0.2315 0.7392-0.4704 1.0304-0.2389 0.2838-0.5413 0.504-0.9072 0.6608s-0.784 0.2352-1.2544 0.2352z" />
            <path d="M29.1834 26.3457c-0.5077 0-0.9483-0.0858-1.3216-0.2576-0.3733-0.1792-0.6795-0.4144-0.9184-0.7056-0.2389-0.2986-0.4181-0.6309-0.5376-0.9968-0.112-0.3658-0.168-0.7429-0.168-1.1312v-0.1568c0-0.3808 0.056-0.7541 0.168-1.12 0.1195-0.3658 0.2987-0.6944 0.5376-0.9856s0.5376-0.5226 0.896-0.6944c0.3659-0.1792 0.7915-0.2688 1.2768-0.2688 0.6197 0 1.1349 0.1382 1.5456 0.4144 0.4181 0.2763 0.7317 0.631 0.9408 1.064 0.2091 0.4256 0.3136 0.8848 0.3136 1.3776v0.4368h-5.2976v-0.6496h4.7152l-0.2128 0.3248c0-0.4405-0.0784-0.825-0.2352-1.1536-0.1493-0.336-0.3733-0.5973-0.672-0.784-0.2912-0.1941-0.6571-0.2912-1.0976-0.2912-0.4629 0-0.8475 0.1083-1.1536 0.3248-0.3061 0.2166-0.5376 0.504-0.6944 0.8624-0.1493 0.3584-0.224 0.7654-0.224 1.2208 0 0.448 0.0747 0.8587 0.224 1.232 0.1568 0.3659 0.392 0.6571 0.7056 0.8736 0.3211 0.2166 0.7243 0.3248 1.2096 0.3248 0.5152 0 0.9333-0.1157 1.2544-0.3472 0.3211-0.2389 0.5189-0.5189 0.5936-0.84h0.784c-0.0747 0.3958-0.2315 0.7392-0.4704 1.0304-0.2389 0.2838-0.5413 0.504-0.9072 0.6608s-0.784 0.2352-1.2544 0.2352z" />
            <path d="M22.2656 28.4289v-0.7504h0.672c0.2912 0 0.5115-0.0859 0.6608-0.2576 0.1568-0.1643 0.2352-0.4032 0.2352-0.7168v-6.4736H24.64v6.3168c0 0.4629-0.0634 0.8325-0.1904 1.1088-0.1194 0.2763-0.3136 0.4741-0.5824 0.5936s-0.6272 0.1792-1.0752 0.1792zM22.8704 20.9025v-0.672H24.64v0.672zM23.9904 19.0321c-0.2016 0-0.3546-0.0523-0.4592-0.1568-0.097-0.112-0.1456-0.2501-0.1456-0.4144s0.0486-0.2987 0.1456-0.4032c0.1046-0.112 0.2576-0.168 0.4592-0.168s0.351 0.056 0.448 0.168c0.0971 0.1045 0.1456 0.2389 0.1456 0.4032s-0.0485 0.3024-0.1456 0.4144c-0.097 0.1045-0.2464 0.1568-0.448 0.1568z" />
            <path d="M78.1351 16.8031c-0.5078 0-0.9483-0.0858-1.3216-0.2576-0.3734-0.1792-0.6795-0.4144-0.9184-0.7056-0.239-0.2986-0.4182-0.6309-0.5376-0.9968-0.112-0.3658-0.168-0.7429-0.168-1.1312v-0.1568c0-0.3808 0.056-0.7541 0.168-1.12 0.1194-0.3658 0.2986-0.6944 0.5376-0.9856 0.2389-0.2912 0.5376-0.5226 0.896-0.6944 0.3658-0.1792 0.7914-0.2688 1.2768-0.2688 0.6197 0 1.1349 0.1382 1.5456 0.4144 0.4181 0.2763 0.7317 0.631 0.9408 1.064 0.209 0.4256 0.3136 0.8848 0.3136 1.3776v0.4368h-5.2976v-0.6496h4.7152l-0.2128 0.3248c0-0.4405-0.0784-0.825-0.2352-1.1536-0.1494-0.336-0.3734-0.5973-0.672-0.784-0.2912-0.1941-0.6571-0.2912-1.0976-0.2912-0.463 0-0.8475 0.1083-1.1536 0.3248-0.3062 0.2166-0.5376 0.504-0.6944 0.8624-0.1494 0.3584-0.224 0.7654-0.224 1.2208 0 0.448 0.0746 0.8587 0.224 1.232 0.1568 0.3659 0.392 0.6571 0.7056 0.8736 0.321 0.2166 0.7242 0.3248 1.2096 0.3248 0.5152 0 0.9333-0.1157 1.2544-0.3472 0.321-0.2389 0.5189-0.5189 0.5936-0.84h0.784c-0.0747 0.3958-0.2315 0.7392-0.4705 1.0304-0.2389 0.2838-0.5413 0.504-0.9071 0.6608-0.3659 0.1568-0.784 0.2352-1.2544 0.2352z" />
            <path d="M70.5458 16.8032c-0.433 0-0.8288-0.0784-1.1872-0.2352-0.3509-0.1643-0.657-0.3883-0.9184-0.672-0.2538-0.2912-0.4517-0.6198-0.5936-0.9856-0.1344-0.3734-0.2016-0.7691-0.2016-1.1872v-0.1568c0-0.4032 0.0672-0.7878 0.2016-1.1536 0.1344-0.3734 0.3248-0.7019 0.5712-0.9856 0.2539-0.2912 0.5563-0.519 0.9072-0.6832 0.3584-0.1718 0.7579-0.2576 1.1984-0.2576 0.5003 0 0.9408 0.1082 1.3216 0.3248 0.3808 0.2165 0.687 0.5301 0.9184 0.9408 0.2315 0.4032 0.3547 0.8997 0.3696 1.4896l-0.3696-0.6944V8.4368l0.84 0v8.176h-0.672v-2.632h0.2688c-0.0149 0.6197-0.1456 1.1424-0.392 1.568-0.2389 0.4181-0.5562 0.7317-0.952 0.9408-0.3882 0.209-0.825 0.3136-1.3104 0.3136zM70.6578 16.064c0.4032 0 0.7654-0.0896 1.0864-0.2688 0.3286-0.1792 0.5862-0.4331 0.7728-0.7616 0.1867-0.336 0.28-0.7206 0.28-1.1536v-0.5376c0-0.4182-0.0933-0.784-0.28-1.0976-0.1866-0.3211-0.4442-0.5712-0.7728-0.7504-0.321-0.1792-0.6869-0.2688-1.0976-0.2688-0.4405 0-0.825 0.1082-1.1536 0.3248-0.321 0.209-0.5712 0.4965-0.7504 0.8624-0.1717 0.3658-0.2576 0.7765-0.2576 1.232 0 0.4704 0.0896 0.8885 0.2688 1.2544 0.1792 0.3658 0.4331 0.6533 0.7616 0.8624 0.3286 0.2016 0.7094 0.3024 1.1424 0.3024z" />
            <path d="M65.4575 16.6128V14.832h-0.1344v-2.1056c0-0.4405-0.1157-0.7765-0.3472-1.008-0.2314-0.2389-0.5898-0.3584-1.0752-0.3584-0.224 0-0.4517 37e-4-0.6832 0.0112-0.224 75e-4-0.4405 0.0187-0.6496 0.0336-0.2016 75e-4-0.3808 0.0187-0.5376 0.0336v-0.7392c0.1643-0.0149 0.3323-0.0299 0.504-0.0448 0.1718-0.0149 0.3472-0.0224 0.5264-0.0224 0.1867-75e-4 0.3659-0.0112 0.5376-0.0112 0.6048 0 1.0902 0.0747 1.456 0.224 0.3734 0.1493 0.6459 0.3845 0.8176 0.7056 0.1718 0.3136 0.2576 0.7317 0.2576 1.2544v3.808zM63.4527 16.7696c-0.4181 0-0.7877-0.0747-1.1088-0.224-0.321-0.1493-0.5712-0.3659-0.7504-0.6496-0.1717-0.2837-0.2576-0.6272-0.2576-1.0304 0-0.3957 0.0896-0.7317 0.2688-1.008 0.1867-0.2763 0.4518-0.4853 0.7952-0.6272 0.351-0.1493 0.7728-0.224 1.2656-0.224h1.736v0.6384h-1.792c-0.4704 0-0.8325 0.1157-1.0864 0.3472-0.2464 0.224-0.3696 0.5189-0.3696 0.8848 0 0.3733 0.1307 0.672 0.392 0.896 0.2614 0.2165 0.616 0.3248 1.064 0.3248 0.2763 0 0.5414-0.0485 0.7952-0.1456 0.2539-0.1045 0.4667-0.2763 0.6384-0.5152 0.1718-0.2464 0.2651-0.5824 0.28-1.008l0.2464 0.3472c-0.0298 0.4405-0.1344 0.8101-0.3136 1.1088-0.1792 0.2912-0.4218 0.5115-0.728 0.6608-0.3061 0.1493-0.6645 0.224-1.0752 0.224z" />
            <path d="M51.1895 16.6128v-5.936h0.672v2.4976h-0.1344c0-0.5451 0.0746-1.0155 0.224-1.4112 0.1568-0.3957 0.3882-0.7019 0.6944-0.9184 0.3061-0.224 0.6944-0.336 1.1648-0.336h0.0336c0.4704 0 0.8586 0.1083 1.1648 0.3248 0.3061 0.2165 0.5338 0.5227 0.6832 0.9184 0.1493 0.3957 0.224 0.8699 0.224 1.4224h-0.2688c0-0.5451 0.0746-1.0155 0.224-1.4112 0.1568-0.3957 0.3882-0.7019 0.6944-0.9184 0.3136-0.224 0.7056-0.336 1.176-0.336h0.0336c0.4704 0 0.8586 0.1083 1.1648 0.3248 0.3136 0.2165 0.545 0.5227 0.6944 0.9184 0.1568 0.3957 0.2352 0.8699 0.2352 1.4224v3.4384h-0.84V12.984c0-0.5227-0.127-0.9371-0.3808-1.2432-0.2539-0.3061-0.6198-0.4592-1.0976-0.4592-0.4928 0-0.8848 0.1605-1.176 0.4816-0.2838 0.3136-0.4256 0.7392-0.4256 1.2768v3.5728h-0.84V12.984c0-0.5227-0.127-0.9371-0.3808-1.2432-0.2539-0.3061-0.6198-0.4592-1.0976-0.4592-0.4928 0-0.8848 0.1605-1.176 0.4816-0.2838 0.3136-0.4256 0.7392-0.4256 1.2768v3.5728z" />
            <path d="M46.0756 16.8032c-0.4331 0-0.8288-0.0784-1.1872-0.2352-0.3509-0.1643-0.6571-0.3883-0.9184-0.672-0.2539-0.2912-0.4517-0.6198-0.5936-0.9856-0.1344-0.3734-0.2016-0.7691-0.2016-1.1872v-0.1568c0-0.4032 0.0672-0.7878 0.2016-1.1536 0.1344-0.3734 0.3248-0.7019 0.5712-0.9856 0.2539-0.2912 0.5563-0.519 0.9072-0.6832 0.3584-0.1718 0.7579-0.2576 1.1984-0.2576 0.5003 0 0.9408 0.1082 1.3216 0.3248 0.3808 0.2165 0.6869 0.5301 0.9184 0.9408 0.2315 0.4032 0.3547 0.8997 0.3696 1.4896l-0.3696-0.6944V8.4368l0.84 0v8.176h-0.672v-2.632H48.73c-0.0149 0.6197-0.1456 1.1424-0.392 1.568-0.2389 0.4181-0.5563 0.7317-0.952 0.9408-0.3883 0.209-0.8251 0.3136-1.3104 0.3136zM46.1876 16.064c0.4032 0 0.7653-0.0896 1.0864-0.2688 0.3285-0.1792 0.5861-0.4331 0.7728-0.7616 0.1867-0.336 0.28-0.7206 0.28-1.1536v-0.5376c0-0.4182-0.0933-0.784-0.28-1.0976-0.1867-0.3211-0.4443-0.5712-0.7728-0.7504-0.3211-0.1792-0.6869-0.2688-1.0976-0.2688-0.4405 0-0.8251 0.1082-1.1536 0.3248-0.3211 0.209-0.5712 0.4965-0.7504 0.8624-0.1717 0.3658-0.2576 0.7765-0.2576 1.232 0 0.4704 0.0896 0.8885 0.2688 1.2544 0.1792 0.3658 0.4331 0.6533 0.7616 0.8624 0.3285 0.2016 0.7093 0.3024 1.1424 0.3024z" />
            <path d="M36.6479 16.6128V10.688h0.672v2.4864h-0.1344c0-0.5525 0.0822-1.0267 0.2464-1.4224 0.1643-0.3957 0.4107-0.7019 0.7392-0.9184 0.3286-0.2165 0.743-0.3248 1.2432-0.3248h0.0336c0.7467 0 1.303 0.2352 1.6688 0.7056 0.3659 0.4629 0.5488 1.1163 0.5488 1.96v3.4384h-0.8288v-3.6176c0-0.5152-0.1418-0.9296-0.4256-1.2432-0.2837-0.3136-0.6794-0.4704-1.1872-0.4704-0.5226 0-0.9445 0.1643-1.2656 0.4928-0.3136 0.3211-0.4704 0.7467-0.4704 1.2768v3.5616z" />
            <path d="M33.9898 16.6128V14.832h-0.1344v-2.1056c0-0.4405-0.1158-0.7765-0.3472-1.008-0.2315-0.2389-0.5899-0.3584-1.0752-0.3584-0.224 0-0.4518 37e-4-0.6832 0.0112-0.224 75e-4-0.4406 0.0187-0.6496 0.0336-0.2016 75e-4-0.3808 0.0187-0.5376 0.0336v-0.7392c0.1642-0.0149 0.3322-0.0299 0.504-0.0448 0.1717-0.0149 0.3472-0.0224 0.5264-0.0224 0.1866-75e-4 0.3658-0.0112 0.5376-0.0112 0.6048 0 1.0901 0.0747 1.456 0.224 0.3733 0.1493 0.6458 0.3845 0.8176 0.7056 0.1717 0.3136 0.2576 0.7317 0.2576 1.2544v3.808zM31.985 16.7696c-0.4182 0-0.7878-0.0747-1.1088-0.224-0.3211-0.1493-0.5712-0.3659-0.7504-0.6496-0.1718-0.2837-0.2576-0.6272-0.2576-1.0304 0-0.3957 0.0896-0.7317 0.2688-1.008 0.1866-0.2763 0.4517-0.4853 0.7952-0.6272 0.3509-0.1493 0.7728-0.224 1.2656-0.224h1.736v0.6384h-1.792c-0.4704 0-0.8326 0.1157-1.0864 0.3472-0.2464 0.224-0.3696 0.5189-0.3696 0.8848 0 0.3733 0.1306 0.672 0.392 0.896 0.2613 0.2165 0.616 0.3248 1.064 0.3248 0.2762 0 0.5413-0.0485 0.7952-0.1456 0.2538-0.1045 0.4666-0.2763 0.6384-0.5152 0.1717-0.2464 0.265-0.5824 0.28-1.008l0.2464 0.3472c-0.0299 0.4405-0.1344 0.8101-0.3136 1.1088-0.1792 0.2912-0.4219 0.5115-0.728 0.6608-0.3062 0.1493-0.6646 0.224-1.0752 0.224z" />
            <path d="M23.3862 16.6128v-8.176l0.84 0v4.6256l-0.2464 0.1904c0-0.5526 0.0784-1.0342 0.2352-1.4448 0.1643-0.4107 0.407-0.728 0.728-0.952 0.3286-0.2315 0.7392-0.3472 1.232-0.3472h0.0448c0.7168 0 1.2582 0.2352 1.624 0.7056 0.3734 0.4704 0.56 1.1237 0.56 1.96v3.4384H27.575v-3.6176c0-0.5302-0.1456-0.9483-0.4368-1.2544-0.2912-0.3062-0.6832-0.4592-1.176-0.4592-0.5301 0-0.952 0.1717-1.2656 0.5152-0.3136 0.336-0.4704 0.7802-0.4704 1.3328v3.4832z" />
            <path d="M35.0474 25.5001l1.1752-5.3248h1.092l1.3624 5.3248h-0.676l-1.3624-5.2936h0.2496l-1.1856 5.2936zM34.6002 25.5001v-0.6344h0.9464v0.6344zM34.413 25.5001l-1.5912-5.5016h0.7488l1.5704 5.5016zM38.1778 25.5001v-0.6344h0.9256v0.6344zM38.5834 25.5001l1.3728-5.5016h0.7176l-1.404 5.5016z" />
        </symbol>
    </defs>
</svg>